SOURCE: DVD-R
 
http://www.imdb.com/title/tt0266971/


- SAMPLE: Yes

- SUBTITLE: No

- LANGUAGE: English


CAST:
-------
Ryan Gosling, David Morse, Clea DuVall, David Cale, Eddie Spears, Kelly Lynch, Amy Adams


PLOT:
--------
Roy gets cut from his high school football team just days after his estranged father dies. For him, football is more than a proving ground; it is a promised escape from his lonely rural existence and salvation from the paralyzing passivity that dominates his life. Enter Gideon, a loner living on the roughneck fringe who is looking for gamers--kids who scrap hard--to play on his six-man football squad. Roy joins the Renegades, and he and Gideon enter into tenuous friendship that pushes the limits of male bonding.


General
----------
Format : AVI
Format/Info : Audio Video Interleave
File size : 1.37 GiB
Duration : 1h 56mn
Overall bit rate : 1680 Kbps
Writing application : VirtualDubMod 1.5.10.3
Writing library : VirtualDubMod build 2550

Video
--------
Format : MPEG-4 Visual
Format profile : Advanced Simple@L5
Format settings, BVOP : 1
Format settings, QPel : No
Format settings, GMC : No warppoints
Format settings, Matrix : Custom
Codec ID : XVID
Codec ID/Hint : XviD
Duration : 1h 56mn
Bit rate : 1481 Kbps
Width : 720 pixels
Height : 336 pixels
Display aspect ratio : 2.143
Frame rate : 25.000 fps
Color space : YUV
Chroma subsampling : 4:2:0
Bit depth : 8 bits
Scan type : Progressive
Compression mode : Lossy
Bits/(Pixel*Frame) : 0.245
Stream size : 1.21 GiB (88%)
Writing library : XviD 64

Audio
--------
Format : AC-3
Format/Info : Audio Coding 3
Mode extension : CM (complete main)
Format settings, Endianness : Big
Codec ID : 2000
Duration : 1h 56mn
Bit rate mode : Constant
Bit rate : 192 Kbps
Channel(s) : 2 channels
Channel positions : Front: L R
Sampling rate : 48.0 KHz
Bit depth : 16 bits
Compression mode : Lossy
Delay relative to video : 24ms
Stream size : 160 MiB (11%)
Alignment : Split accross interleaves
Interleave, duration : 96 ms (2.40 video frames)
Interleave, preload duration : 96 ms
Language : English